<svg width="104" height="76" viewBox="0 0 104 76" fill="none" xmlns="http://www.w3.org/2000/svg">
<path d="M98.2559 56.9163C99.9273 54.055 98.9626 50.3805 96.1013 48.7091C93.24 47.0377 89.5655 48.0024 87.8941 50.8637L98.2559 56.9163ZM39.725 37.84C39.725 34.5263 37.0387 31.84 33.725 31.84C30.4113 31.84 27.725 34.5263 27.725 37.84H39.725ZM31.8878 20.5687C30.3739 23.5164 31.5361 27.1332 34.4837 28.6472C37.4314 30.1611 41.0482 28.9989 42.5622 26.0513L31.8878 20.5687ZM97.405 37.84V43.84C100.719 43.84 103.405 41.1537 103.405 37.84H97.405ZM6.595 31.84C3.28129 31.84 0.595001 34.5263 0.595001 37.84C0.595001 41.1537 3.28129 43.84 6.595 43.84V31.84ZM87.8941 50.8637C83.4074 58.5448 75.0895 63.68 65.565 63.68V75.68C79.5205 75.68 91.7026 68.1352 98.2559 56.9163L87.8941 50.8637ZM65.565 63.68C51.2899 63.68 39.725 52.1075 39.725 37.84H27.725C27.725 58.7325 44.6601 75.68 65.565 75.68V63.68ZM42.5622 26.0513C46.8543 17.6946 55.55 12 65.565 12V0C50.88 0 38.1557 8.36544 31.8878 20.5687L42.5622 26.0513ZM65.565 12C79.8401 12 91.405 23.5725 91.405 37.84H103.405C103.405 16.9475 86.4699 0 65.565 0V12ZM97.405 31.84H6.595V43.84H97.405V31.84Z" fill="#6ED9A1"/>
</svg>
